<svg viewBox="0 0 440.22678 138.20502" xmlns="http://www.w3.org/2000/svg">
    <g transform="translate(-40.193008,-204.41016)" fill="#FFFFFF">
        <path id="glasses"
              d="m 146.73242,207.42578 c -15.58442,-0.15569 -31.30106,0.59765 -44.7539,2.72266 -13.452856,2.125 -24.687963,5.09867 -31.968754,12.05468 -5.306118,5.06945 -7.043758,12.27751 -8.1875,20.74805 -0.04965,0.36768 -0.03267,0.80876 -0.07813,1.18164 a 6.50065,6.50065 0 0 0 -1.097657,-0.16406 l -13.978515,3.9375 a 6.50065,6.50065 0 0 0 0.130859,12.54883 l 14.46875,3.75195 c 0.11188,2.40203 0.09497,4.73718 0.322266,7.18164 1.876954,20.18586 6.842634,41.03128 18.130859,52.67188 a 6.50065,6.50065 0 0 0 0.04102,0.041 c 9.679791,9.80479 26.623522,15.30149 53.501952,15.94141 26.71747,0.63608 57.18814,0.6856 75.81445,-15.61719 10.05354,-8.79941 20.56896,-26.16963 26.63477,-46.74609 1.01119,-3.43013 1.66283,-7.18681 2.0625,-11.23047 0.60447,-3.28142 1.41138,-6.53139 2.44922,-9.40039 0.29263,-0.55795 0.6054,-1.13633 0.93555,-1.72656 2.15649,-3.85541 5.5175,-7.98485 6.63672,-8.67969 0.0736,-0.0457 1.87604,-0.67054 4.36523,-0.89063 1.85239,-0.16377 4.05406,-0.2166 6.35547,-0.27343 0.21809,0.008 0.43588,0.0172 0.6543,0.0254 3.2576,0.12262 6.49912,0.16295 9.08984,0.40039 2.59072,0.23743 4.49259,0.89908 4.5293,0.92187 1.11922,0.69484 4.48217,4.82624 6.63867,8.68164 0.0369,0.066 0.0729,0.13153 0.10937,0.19727 1.54134,3.79422 2.63329,8.42501 3.34571,12.9668 l 0.0254,-0.004 c 0.40446,3.20643 0.98879,6.21756 1.8125,9.01172 6.0658,20.57646 16.58123,37.94668 26.63476,46.74609 18.62634,16.30279 49.09698,16.25327 75.81446,15.61719 26.87844,-0.63992 43.82215,-6.13663 53.50195,-15.94141 a 6.50065,6.50065 0 0 0 0.041,-0.041 c 11.28823,-11.6406 16.25391,-32.48602 18.13086,-52.67188 0.2273,-2.44446 0.21039,-4.77961 0.32227,-7.18164 l 14.46875,-3.75195 a 6.50065,6.50065 0 0 0 0.13086,-12.54883 l -13.97852,-3.9375 a 6.50065,6.50065 0 0 0 -1.09765,0.16406 c -0.0455,-0.37288 -0.0285,-0.81396 -0.0781,-1.18164 -1.14374,-8.47054 -2.88138,-15.67859 -8.1875,-20.74805 -7.28079,-6.95601 -18.51591,-9.92968 -31.96875,-12.05468 -13.45284,-2.12501 -29.16948,-2.87835 -44.75391,-2.72266 -15.58451,0.15569 -31.00293,1.23179 -43.76562,2.875 -12.76269,1.64321 -22.29755,3.33366 -28.71484,6.78125 -2.43689,1.30918 -4.62654,2.81266 -6.57813,4.48438 l -0.0371,-0.0664 c -6.92256,3.83727 -15.42771,5.50829 -23.30859,6.11914 -1.29607,-0.0972 -2.47252,-0.0581 -3.89844,-0.0176 -2.56177,0.0726 -5.74631,0.22409 -9.36914,0.23438 -2.07924,-0.0635 -3.95791,-0.14904 -5.58789,-0.20313 -0.87907,-0.0292 -1.66591,-0.0562 -2.4375,-0.0547 -7.9761,-0.5739 -16.76811,-2.24086 -24.02539,-6.26367 l -0.1543,0.2793 c -1.96003,-1.68325 -4.16242,-3.19503 -6.61328,-4.51172 -6.41729,-3.44759 -15.95215,-5.13804 -28.71484,-6.78125 -12.76269,-1.64321 -28.1811,-2.71931 -43.76563,-2.875 z m -0.1289,13 c 15.06884,0.15054 30.07893,1.20255 42.23437,2.76758 12.15544,1.56503 22.02836,4.16295 24.22266,5.3418 9.32535,5.0099 12.13781,10.99512 12.2539,22.35742 0.0991,9.6956 -0.55847,17.98286 -2.07031,23.11133 -5.41853,18.38077 -16.04527,34.79109 -22.72852,40.64062 -12.83388,11.23293 -40.7386,13.02622 -66.94335,12.40235 -25.12469,-0.59817 -38.683095,-6.15087 -44.533208,-12.05469 -6.565908,-6.78928 -12.780921,-26.27666 -14.503906,-44.80664 -0.862099,-9.27152 -0.794061,-18.3549 0.169922,-25.49414 0.963983,-7.13925 3.346063,-12.19264 4.285156,-13.08985 3.130229,-2.9906 12.652543,-6.65815 25.017576,-8.61133 12.36504,-1.95317 27.52675,-2.71499 42.59571,-2.56445 z m 227.22851,0 c 15.06896,-0.15054 30.23066,0.61128 42.5957,2.56445 12.36505,1.95318 21.88735,5.62073 25.01758,8.61133 0.9391,0.89721 3.32118,5.9506 4.28516,13.08985 0.96398,7.13924 1.03202,16.22262 0.16992,25.49414 -1.72298,18.52998 -7.938,38.01736 -14.50391,44.80664 -5.85011,5.90382 -19.40851,11.45653 -44.5332,12.05469 -26.20475,0.62387 -54.10946,-1.16942 -66.94336,-12.40235 -6.68322,-5.84953 -17.30998,-22.25985 -22.72851,-40.64062 -1.51185,-5.12847 -2.16938,-13.41573 -2.07032,-23.11133 0.1161,-11.3623 2.92856,-17.34752 12.25391,-22.35742 2.1943,-1.17885 12.06721,-3.77677 24.22266,-5.3418 12.15544,-1.56503 27.16552,-2.61704 42.23437,-2.76758 z m -137.17187,18.375 c 0.0837,0.0178 0.16637,0.0352 0.25,0.0527 -0.0617,0.0616 -0.12264,0.12349 -0.1836,0.18554 -0.0221,-0.0796 -0.0439,-0.15889 -0.0664,-0.23828 z m 47.06836,0.16992 c -0.008,0.0287 -0.0155,0.0572 -0.0234,0.0859 -0.0225,-0.0225 -0.0458,-0.044 -0.0684,-0.0664 0.0305,-0.006 0.0613,-0.0132 0.0918,-0.0195 z"
        />
        <path id="letter-E"
              d="m 128.76367,246.38477 v 0.30859 h -0.31055 v 52.63672 h 0.31055 v 0.26758 h 42.84961 v -9.21289 h -30.25781 v -13.7168 h 28.32812 v -9.21094 h -28.32812 v -11.85937 h 30.25781 v -9.21289 z"
        />
        <path id="letter-T"
              d="m 344.26172,246.83203 v 11.16406 h 20.16601 v 41.61133 h 12.96289 v -41.61133 h 19.08594 v -11.16406 z"
        />
    </g>
</svg>